<svg xmlns="http://www.w3.org/2000/svg" width="30" height="25" fill="none"><path d="M26.929 6.328l.018.796c0 8.133-6.191 17.513-17.513 17.513v-.005c-3.344.005-6.619-.953-9.434-2.759a12.36 12.36 0 0 0 1.465.089 12.36 12.36 0 0 0 7.644-2.64c-2.634-.05-4.943-1.767-5.75-4.274a6.14 6.14 0 0 0 2.779-.106c-2.871-.58-4.937-3.103-4.937-6.033V8.83a6.11 6.11 0 0 0 2.793.77C1.289 7.793.456 4.195 2.089 1.382a17.47 17.47 0 0 0 12.685 6.43 6.16 6.16 0 0 1 1.781-5.881c2.479-2.33 6.378-2.211 8.708.267A12.35 12.35 0 0 0 29.171.705c-.459 1.425-1.421 2.635-2.706 3.404A12.24 12.24 0 0 0 30 3.14c-.826 1.238-1.867 2.317-3.071 3.188z" fill="#c5c5c5"/></svg>