<svg xmlns="http://www.w3.org/2000/svg" width="30" height="30" fill="none"><path fill-rule="evenodd" d="M14.999 0C6.717 0 0 6.716 0 15.001c0 6.627 4.298 12.249 10.258 14.232.75.138 1.024-.325 1.024-.723l-.02-2.551c-4.172.906-5.053-2.011-5.053-2.011-.682-1.733-1.666-2.194-1.666-2.194-1.362-.93.103-.912.103-.912 1.506.106 2.297 1.546 2.297 1.546 1.338 2.292 3.511 1.63 4.366 1.246.136-.969.524-1.63.952-2.005-3.331-.378-6.833-1.666-6.833-7.414 0-1.637.585-2.977 1.544-4.025-.155-.379-.669-1.905.147-3.97 0 0 1.259-.403 4.124 1.538 1.196-.333 2.48-.499 3.755-.506 1.274.006 2.557.172 3.755.506 2.864-1.941 4.121-1.538 4.121-1.538.819 2.065.304 3.59.15 3.97.961 1.048 1.542 2.388 1.542 4.025 0 5.763-3.508 7.031-6.848 7.402.538.463 1.018 1.378 1.018 2.777l-.018 4.115c0 .401.271.868 1.031.722C25.706 27.244 30 21.626 30 15.001c0-8.285-6.717-15-15.001-15z" fill="#c5c5c5"/></svg>